<?xml version="1.0" standalone="no"?><!DOCTYPE svg PUBLIC "-//W3C//DTD SVG 1.1//EN" "http://www.w3.org/Graphics/SVG/1.1/DTD/svg11.dtd"><svg t="1684673524668" class="icon" viewBox="0 0 1024 1024" version="1.1" xmlns="http://www.w3.org/2000/svg" p-id="3428" xmlns:xlink="http://www.w3.org/1999/xlink" width="128" height="128"><path d="M505.9328 39.25504l-221.26592 2.18624-38.71744 72.40192 35.8144 68.44928v242.6624c0 61.27104 49.66912 110.93504 110.93504 110.93504 61.26592 0 110.93504-49.664 110.93504-110.93504V182.6048l0.70144-0.00512 38.71232-72.40192-37.11488-70.94272z m-32.45568 92.4672l-21.0432 36.06016v257.17248c0 32.93696-26.79808 59.73504-59.73504 59.73504s-59.73504-26.79296-59.73504-59.73504V169.70752l-29.09184-55.6032 11.63776-21.76512 159.58528-1.58208 10.03008 19.1744-11.648 21.79072z" p-id="3429" fill="#abc0ca"></path><path d="M288.5888 208.20992h682.66496v49.49504H288.5888z" p-id="3430" fill="#abc0ca"></path><path d="M728.11008 39.25504h83.3536V952.32h-83.3536z" p-id="3431" fill="#abc0ca"></path><path d="M56.48384 899.50208h914.77504v81.92H56.48384z" p-id="3432" fill="#abc0ca"></path><path d="M487.20384 771.17952l-185.39008-1.85344s-114.13504 62.4384-114.13504 103.14752S291.328 959.60064 291.328 959.60064l205.88032-1.2544s102.23616-44.27776 102.23616-88.35072-112.24064-98.816-112.24064-98.816z m-9.95328 145.47456l-155.83232 1.96608s-72.5248-18.90304-72.5248-48.2816c0-29.36832 84.10624-63.5648 84.10624-63.5648l126.57152-1.97632s80.42496 32.8192 80.42496 63.0784-62.7456 48.77824-62.7456 48.77824zM419.61472 369.85856a21.82656 21.82656 0 1 0-5.15584 43.34592 21.82656 21.82656 0 0 0 5.15584-43.34592z m-3.74784 31.52896a9.92256 9.92256 0 1 1 2.33984-19.712 9.92256 9.92256 0 0 1-2.33984 19.712z" p-id="3433" fill="#abc0ca"></path><path d="M414.81216 293.88288m-7.44448 0a7.44448 7.44448 0 1 0 14.88896 0 7.44448 7.44448 0 1 0-14.88896 0Z" p-id="3434" fill="#abc0ca"></path><path d="M361.2416 293.88288a19.95776 19.95776 0 1 0 0 39.91552 19.95776 19.95776 0 0 0 0-39.91552z m0 28.5952c-4.76672 0-8.64256-3.87584-8.64256-8.64256s3.87584-8.64256 8.64256-8.64256c4.76672 0 8.64256 3.88096 8.64256 8.64256s-3.87584 8.64256-8.64256 8.64256zM361.2416 122.24a13.44 13.44 0 0 0 0 26.86976 13.43488 13.43488 0 0 0 0-26.86976z m0 18.7392a5.2992 5.2992 0 1 1-0.00512-10.5984 5.2992 5.2992 0 0 1 0.00512 10.5984z" p-id="3435" fill="#abc0ca"></path><path d="M381.19936 371.47136m-5.38624 0a5.38624 5.38624 0 1 0 10.77248 0 5.38624 5.38624 0 1 0-10.77248 0Z" p-id="3436" fill="#abc0ca"></path><path d="M393.56416 184.59136m-5.39136 0a5.39136 5.39136 0 1 0 10.78272 0 5.39136 5.39136 0 1 0-10.78272 0Z" p-id="3437" fill="#abc0ca"></path><path d="M422.44608 135.67488m-7.63392 0a7.63392 7.63392 0 1 0 15.26784 0 7.63392 7.63392 0 1 0-15.26784 0Z" p-id="3438" fill="#abc0ca"></path><path d="M461.02528 660.45952c0-14.27968-7.56736-30.50496-19.53792-42.29632-9.97376-9.81504-24.6016-47.13472-13.11744-70.8352-31.744 14.10048-52.66944 41.27744-50.07872 73.34912-4.44928-5.28896-3.64544-35.12832-19.28192-40.26368 8.49408 17.536-10.76224 45.1584-18.14016 52.4288-2.29888 2.26304-4.37248 4.7616-6.18496 7.38304-5.46304 6.99392-8.58112 15.06304-8.58112 23.66976 0 16.37376 11.29472 30.81728 28.544 39.6032-10.04544-27.264-9.9328-36.84864 7.62368-68.89472 2.1504 31.67744 22.07232 36.52608 30.4128 41.45152-4.33664-12.16512-5.39136-51.14368 17.88928-64.78336-6.99904 21.02272 11.27936 32.74752 18.2272 41.46176 13.88544 17.40288-0.41472 45.12768-10.15296 56.20224 24.82688-7.168 42.38336-24.61696 42.38336-45.03552 0-0.53248-0.09216-1.05984-0.11264-1.5872 0.0256-0.62464 0.10752-1.2288 0.10752-1.85344zM293.45792 780.16h60.288c-1.46944-3.21536-4.59776-4.76672-11.33568-8.04864l-16.00512-9.66656c-6.20544-3.0208-18.24256-9.04192-16.90624-13.89568h168.09984c6.77888 1.10592-0.16896 7.56224-3.82976 9.27744l-28.67712 16.95232c-3.36384 2.73408-5.69344 4.32128-7.34208 5.38624h55.9616c14.3872-11.41248 22.8608-25.37984 22.8608-40.4736 0-10.4192-13.89568-29.17888-29.33248-29.17888H299.88352c-14.848 0-29.33248 18.75968-29.33248 29.17888-0.00512 15.08864 8.50944 29.056 22.90688 40.46848z" p-id="3439" fill="#abc0ca"></path></svg>