<?xml version="1.0" standalone="no"?><!DOCTYPE svg PUBLIC "-//W3C//DTD SVG 1.1//EN" "http://www.w3.org/Graphics/SVG/1.1/DTD/svg11.dtd"><svg t="1684571453669" class="icon" viewBox="0 0 1024 1024" version="1.1" xmlns="http://www.w3.org/2000/svg" p-id="2841" xmlns:xlink="http://www.w3.org/1999/xlink" width="128" height="128"><path d="M938.666667 113.777778v816.355555c0 28.444444-5.688889 51.2-17.066667 68.266667-8.533333 11.377778-25.6 25.6-56.888889 25.6-28.444444 0-54.044444-5.688889-79.644444-17.066667-139.377778-73.955556-369.777778-190.577778-403.911111-204.8H253.155556c-91.022222 0-164.977778-62.577778-164.977778-142.222222V398.222222c0-85.333333 82.488889-162.133333 164.977778-162.133333h125.155555c36.977778-17.066667 267.377778-142.222222 409.6-219.022222h2.844445c22.755556-11.377778 45.511111-17.066667 65.422222-17.066667 19.911111 0 39.822222 8.533333 54.044444 22.755556 28.444444 28.444444 28.444444 71.111111 28.444445 91.022222zM372.622222 267.377778H253.155556C170.666667 267.377778 116.622222 338.488889 116.622222 398.222222v258.844445c0 62.577778 54.044444 113.777778 136.533334 113.777777h119.466666V267.377778z m497.777778-236.088889c-19.911111-2.844444-39.822222 2.844444-56.888889 11.377778C523.377778 199.111111 432.355556 247.466667 401.066667 261.688889v514.844444c25.6 11.377778 110.933333 51.2 401.066666 204.8 42.666667 17.066667 62.577778 14.222222 68.266667 14.222223 0 0 36.977778-8.533333 36.977778-62.577778V113.777778c0-11.377778-2.844444-73.955556-36.977778-82.488889zM810.666667 312.888889c-8.533333 0-14.222222-5.688889-14.222223-14.222222v-56.888889c0-22.755556-5.688889-25.6-8.533333-28.444445-2.844444 0-11.377778-5.688889-42.666667 8.533334-207.644444 110.933333-213.333333 110.933333-219.022222 110.933333-8.533333 0-17.066667-8.533333-17.066666-17.066667s5.688889-14.222222 11.377777-14.222222c14.222222-5.688889 133.688889-68.266667 207.644445-108.088889 22.755556-11.377778 51.2-22.755556 73.955555-8.533333 17.066667 11.377778 22.755556 28.444444 22.755556 56.888889v56.888889c0 8.533333-5.688889 14.222222-14.222222 14.222222z m0 34.133333c8.533333 0 14.222222 8.533333 14.222222 17.066667v17.066667c0 8.533333-5.688889 14.222222-14.222222 17.066666-8.533333 0-17.066667-5.688889-17.066667-14.222222v-19.911111c0-8.533333 8.533333-17.066667 17.066667-17.066667z" fill="#abc0ca" p-id="2842"></path></svg>