<?xml version="1.0" standalone="no"?><!DOCTYPE svg PUBLIC "-//W3C//DTD SVG 1.1//EN" "http://www.w3.org/Graphics/SVG/1.1/DTD/svg11.dtd"><svg t="1684577332170" class="icon" viewBox="0 0 1024 1024" version="1.1" xmlns="http://www.w3.org/2000/svg" p-id="31042" xmlns:xlink="http://www.w3.org/1999/xlink" width="128" height="128"><path d="M117.333333 185.813333a32 32 0 0 0-32 32V844.8a32 32 0 0 0 64 0V217.770667a32 32 0 0 0-32-32zM890.026667 85.333333H317.226667a98.56 98.56 0 0 0-98.56 98.56v656.213334A98.56 98.56 0 0 0 317.226667 938.666667H890.026667a98.56 98.56 0 0 0 98.56-98.56V183.893333A98.645333 98.645333 0 0 0 890.026667 85.333333z m-283.562667 67.328v260.522667l-52.352-33.365333a67.712 67.712 0 0 0-74.752 0.853333l-45.184 30.592V152.661333h172.288zM924.586667 840.106667a34.56 34.56 0 0 1-34.56 34.56H317.226667a34.56 34.56 0 0 1-34.56-34.56V183.893333a34.56 34.56 0 0 1 34.56-34.56h52.992v288.938667a49.706667 49.706667 0 0 0 77.525333 41.216l67.584-45.653333a3.84 3.84 0 0 1 4.352 0l75.648 48.341333a48.554667 48.554667 0 0 0 49.621333 1.706667c15.658667-8.618667 25.386667-25.045333 25.344-42.922667V149.333333h219.605334a34.56 34.56 0 0 1 34.56 34.56v656.213334h0.128z" fill="#abc0ca" p-id="31043"></path></svg>