<?xml version="1.0" standalone="no"?><!DOCTYPE svg PUBLIC "-//W3C//DTD SVG 1.1//EN" "http://www.w3.org/Graphics/SVG/1.1/DTD/svg11.dtd"><svg t="1706516756264" class="icon" viewBox="0 0 1024 1024" version="1.1" xmlns="http://www.w3.org/2000/svg" p-id="4262" xmlns:xlink="http://www.w3.org/1999/xlink" width="48" height="48"><path d="M743.1 600.2c-5.9 0-11.8-2.3-16.4-6.8-9-9-9-23.7 0-32.7l176.1-176.1c11.4-11.4 11.4-30 0-41.4L680.4 120.6c-11.4-11.4-30-11.4-41.4 0L462.8 296.7c-9 9-23.7 9-32.7 0-9-9-9-23.7 0-32.7L606.2 87.8c14.3-14.3 33.3-22.1 53.5-22.1 20.2 0 39.2 7.9 53.5 22.1l222.5 222.5c14.3 14.3 22.1 33.3 22.1 53.4s-7.9 39.2-22.1 53.5L759.5 593.4c-4.5 4.5-10.5 6.8-16.4 6.8zM363 958.6c-20.2 0-39.2-7.9-53.4-22.1L87.1 713.9C72.8 699.6 65 680.6 65 660.4c0-20.2 7.9-39.2 22.1-53.5l176.1-176.1c9-9 23.7-9 32.7 0 9 9 9 23.7 0 32.7L119.8 639.7c-11.4 11.4-11.4 30 0 41.4l222.5 222.5c11.4 11.4 30 11.4 41.4 0l176.1-176.1c9-9 23.7-9 32.7 0 9 9 9 23.7 0 32.7l-176 176.2c-14.3 14.3-33.3 22.2-53.5 22.2z" fill="#337ab7" p-id="4263"></path><path d="M372.3 674.3c-5.9 0-11.8-2.3-16.4-6.8-9-9-9-23.7 0-32.7L634 356.7c9-9 23.7-9 32.7 0 9 9 9 23.7 0 32.7L388.6 667.6c-4.5 4.5-10.4 6.7-16.3 6.7z" fill="#337ab7" p-id="4264"></path></svg>