<?xml version="1.0" standalone="no"?><!DOCTYPE svg PUBLIC "-//W3C//DTD SVG 1.1//EN" "http://www.w3.org/Graphics/SVG/1.1/DTD/svg11.dtd"><svg t="1684576948234" class="icon" viewBox="0 0 1024 1024" version="1.1" xmlns="http://www.w3.org/2000/svg" p-id="27928" xmlns:xlink="http://www.w3.org/1999/xlink" width="128" height="128"><path d="M86.4 517.6c-4 0-8-1.6-10.4-4-3.2-3.2-5.6-8-5.6-12.8 6.4-235.2 195.2-424 431.2-430.4 4.8 0 9.6 1.6 12.8 5.6 3.2 3.2 4.8 8 4 12.8l-56 359.2c-0.8 7.2-6.4 12-13.6 13.6l-359.2 56h-3.2zM482.4 104c-203.2 14.4-364.8 176-379.2 379.2L432 432l50.4-328z" fill="#abc0ca" p-id="27929"></path><path d="M937.6 517.6h-2.4l-359.2-56c-7.2-0.8-12-6.4-13.6-13.6l-56-359.2c-0.8-4.8 0.8-9.6 4-12.8 3.2-3.2 8-5.6 12.8-5.6 236 5.6 424.8 194.4 430.4 430.4 0 4.8-1.6 9.6-5.6 12.8-3.2 2.4-7.2 4-10.4 4zM592 432l328 51.2C905.6 280 744 118.4 540.8 104L592 432z" fill="#abc0ca" p-id="27930"></path><path d="M522.4 953.6c-4.8 0-8.8-1.6-12-5.6-3.2-3.2-4.8-8-4-12.8l56-359.2c0.8-7.2 6.4-12 13.6-13.6l359.2-56c4.8-0.8 9.6 0.8 12.8 4 3.2 3.2 5.6 8 5.6 12.8-6.4 235.2-195.2 424-431.2 430.4zM592 592l-51.2 328c203.2-14.4 364.8-176 379.2-379.2L592 592z" fill="#abc0ca" p-id="27931"></path><path d="M501.6 953.6c-236-6.4-424.8-195.2-431.2-431.2 0-4.8 1.6-9.6 5.6-12.8 3.2-3.2 8-4.8 12.8-4l359.2 56c7.2 0.8 12 6.4 13.6 13.6l56 359.2c0.8 4.8-0.8 9.6-4 12.8-3.2 4-7.2 6.4-12 6.4zM104 541.6c14.4 203.2 176 364.8 379.2 379.2L432 592l-328-50.4z" fill="#abc0ca" p-id="27932"></path><path d="M512 1020c-8 0-14.4-5.6-16-13.6L432 592 17.6 528c-8-1.6-13.6-8-13.6-16s5.6-14.4 13.6-16L432 432l64-414.4c1.6-8 8-13.6 16-13.6s14.4 5.6 16 13.6L592 432l414.4 64.8c8 1.6 13.6 8 13.6 16s-5.6 14.4-13.6 16L592 592l-64 414.4c-1.6 8-8 13.6-16 13.6zM124 512L448 562.4c7.2 0.8 12 6.4 13.6 13.6l50.4 324L562.4 576c0.8-7.2 6.4-12 13.6-13.6l324-50.4L576 461.6c-7.2-0.8-12-6.4-13.6-13.6L512 124 461.6 448c-0.8 7.2-6.4 12-13.6 13.6L124 512z" fill="#abc0ca" p-id="27933"></path><path d="M788.8 486.4h-1.6l-210.4-32.8c-3.2-0.8-6.4-3.2-6.4-6.4l-32.8-210.4c0-2.4 0.8-4.8 2.4-6.4 1.6-1.6 4-2.4 6.4-2.4 132 16 234.4 118.4 250.4 250.4 0 2.4-0.8 4.8-2.4 6.4-1.6 0.8-3.2 1.6-5.6 1.6z m-203.2-48l194.4 30.4c-18.4-116-108.8-206.4-224.8-224.8l30.4 194.4zM235.2 486.4c-2.4 0-4-0.8-5.6-2.4-1.6-1.6-2.4-4-2.4-6.4 16-132 118.4-234.4 250.4-250.4 2.4 0 4.8 0.8 6.4 2.4s2.4 4 2.4 6.4l-32.8 210.4c-0.8 3.2-3.2 6.4-6.4 6.4l-210.4 32.8c-0.8 0.8-1.6 0.8-1.6 0.8z m233.6-241.6c-116 18.4-206.4 108.8-224.8 224.8l194.4-30.4 30.4-194.4zM545.6 796.8c-2.4 0-4-0.8-5.6-2.4-1.6-1.6-2.4-4-2.4-6.4l32.8-210.4c0.8-3.2 3.2-6.4 6.4-6.4l210.4-32.8c2.4 0 4.8 0.8 6.4 2.4 1.6 1.6 2.4 4 2.4 6.4-16 132-118.4 234.4-250.4 250.4 0.8-0.8 0-0.8 0-0.8z m40-211.2l-30.4 194.4c116-18.4 206.4-108.8 224.8-224.8l-194.4 30.4zM478.4 796.8h-0.8c-132-16-234.4-118.4-250.4-250.4 0-2.4 0.8-4.8 2.4-6.4 1.6-1.6 4-2.4 6.4-2.4l210.4 32.8c3.2 0.8 6.4 3.2 6.4 6.4l32.8 210.4c0 2.4-0.8 4.8-2.4 6.4-0.8 2.4-2.4 3.2-4.8 3.2zM244.8 555.2c18.4 116 108.8 206.4 224.8 224.8l-30.4-194.4-194.4-30.4z" fill="#abc0ca" p-id="27934"></path></svg>