<?xml version="1.0" standalone="no"?><!DOCTYPE svg PUBLIC "-//W3C//DTD SVG 1.1//EN" "http://www.w3.org/Graphics/SVG/1.1/DTD/svg11.dtd"><svg t="1684558892859" class="icon" viewBox="0 0 1024 1024" version="1.1" xmlns="http://www.w3.org/2000/svg" p-id="1481" width="128" height="128" xmlns:xlink="http://www.w3.org/1999/xlink"><path d="M600.677917 904.431138h268.263473c19.928144 0 33.724551 13.796407 33.724551 30.658682s-13.796407 30.658683-33.724551 30.658683h-268.263473c4.598802-9.197605 7.664671-19.928144 7.664671-30.658683s-3.065868-19.928144-7.664671-30.658682z m-93.508982-45.988024c41.389222 0 76.646707 35.257485 76.646706 76.646706s-35.257485 76.646707-76.646706 76.646707-76.646707-35.257485-76.646707-76.646707 35.257485-76.646707 76.646707-76.646706z m-30.658683-15.329342h61.317365v-61.317365h-61.317365v61.317365z m-334.17964 61.317366h272.862275c-4.598802 9.197605-7.664671 19.928144-7.664671 30.658682s3.065868 21.461078 7.664671 30.658683h-272.862275c-19.928144 0-33.724551-13.796407-33.724551-30.658683s15.329341-30.658683 33.724551-30.658682z m610.107784-766.467066h61.317365v-61.317365h-61.317365v61.317365z m-76.646707-61.317365c-16.862275 0-30.658683 13.796407-30.658682 30.658682s13.796407 30.658683 30.658682 30.658683 30.658683-13.796407 30.658683-30.658683-13.796407-30.658683-30.658683-30.658682z m-107.305389 0c-16.862275 0-30.658683 13.796407-30.658683 30.658682s13.796407 30.658683 30.658683 30.658683 30.658683-13.796407 30.658683-30.658683-13.796407-30.658683-30.658683-30.658682z m291.257485 137.964071h-705.1497c-24.526946 0-45.988024-19.928144-45.988024-47.520958v-118.035928c0-24.526946 19.928144-47.520958 45.988024-47.520958h705.1497c24.526946 0 45.988024 19.928144 45.988024 47.520958v118.035928c0 27.592814-21.461078 47.520958-45.988024 47.520958z m-107.305389 199.281438h61.317365v-61.317366h-61.317365v61.317366z m-76.646707-61.317366c-16.862275 0-30.658683 13.796407-30.658682 30.658683s13.796407 30.658683 30.658682 30.658683 30.658683-13.796407 30.658683-30.658683c0-15.329341-13.796407-30.658683-30.658683-30.658683z m-107.305389 0c-16.862275 0-30.658683 13.796407-30.658683 30.658683s13.796407 30.658683 30.658683 30.658683 30.658683-13.796407 30.658683-30.658683c1.532934-15.329341-13.796407-30.658683-30.658683-30.658683z m291.257485 137.964072h-705.1497c-24.526946 0-45.988024-19.928144-45.988024-47.520958v-118.035928c0-24.526946 19.928144-47.520958 45.988024-47.520958h705.1497c24.526946 0 45.988024 19.928144 45.988024 47.520958v118.035928c0 27.592814-21.461078 47.520958-45.988024 47.520958z m-107.305389 199.281437h61.317365v-61.317365h-61.317365v61.317365z m-76.646707-61.317365c-16.862275 0-30.658683 13.796407-30.658682 30.658683s13.796407 30.658683 30.658682 30.658682 30.658683-13.796407 30.658683-30.658682-13.796407-30.658683-30.658683-30.658683z m-107.305389 0c-16.862275 0-30.658683 13.796407-30.658683 30.658683s13.796407 30.658683 30.658683 30.658682 30.658683-13.796407 30.658683-30.658682c1.532934-16.862275-13.796407-30.658683-30.658683-30.658683z m291.257485 137.964072h-705.1497c-24.526946 0-45.988024-19.928144-45.988024-47.520958v-118.035928c0-24.526946 19.928144-47.520958 45.988024-47.520958h705.1497c24.526946 0 45.988024 19.928144 45.988024 47.520958v118.035928c0 24.526946-21.461078 47.520958-45.988024 47.520958z" p-id="1482" fill="#abc0ca"></path></svg>