<?xml version="1.0" standalone="no"?><!DOCTYPE svg PUBLIC "-//W3C//DTD SVG 1.1//EN" "http://www.w3.org/Graphics/SVG/1.1/DTD/svg11.dtd"><svg t="1692106073914" class="icon" viewBox="0 0 1024 1024" version="1.1" xmlns="http://www.w3.org/2000/svg" p-id="2487" xmlns:xlink="http://www.w3.org/1999/xlink" width="256" height="256"><path d="M512 896C299.922286 896 128 724.077714 128 512S299.922286 128 512 128 896 299.922286 896 512 724.077714 896 512 896z m0-36.571429a347.428571 347.428571 0 1 0 0-694.857142 347.428571 347.428571 0 0 0 0 694.857142z m96.768-433.517714a18.285714 18.285714 0 0 1 25.892571 25.892572l-146.285714 146.285714a18.285714 18.285714 0 0 1-25.892571 0l-73.142857-73.142857a18.285714 18.285714 0 0 1 25.892571-25.892572L475.428571 559.286857l133.339429-133.376z" fill="#99ffff" p-id="2488"></path></svg>